# xmcd
#
# Track frame offsets:
# 150
# 21757
# 39395
# 57762
# 78412
# 103315
# 121437
# 142567
# 163780
# 188615
# 206847
# 230835
# 249515
# 267012
# 285900
# 306605
#
# Disc length: 4326 seconds
#
#
# Revision: 4
# Processed by: cddbd v1.5.2PL0 Copyright (c) Steve Scherf et al.
# Submitted via: FreeRIP 2.951 
#
DISCID=dc10e410
DTITLE=George Strait - Something Special
DYEAR=1985
DGENRE=Crossover
TTITLE0=You're Something Special To Me
TTITLE1=Last Time The First Time
TTITLE2=Haven't You Heard
TTITLE3=In Too Deep
TTITLE4=Blue Is Not A Word
TTITLE5=You Sure Got This Ol' Redneck Feelin' Blue
TTITLE6=The Chair
TTITLE7=Dance Time In Texas
TTITLE8=Lefty's Gone
TTITLE9=I've Seen That Look On Me (A Thousand Times)
TTITLE10=If Walls Could Talk
TTITLE11=The First Time Ever I Saw Your Face
TTITLE12=All The Way
TTITLE13=Then You Look At Me
TTITLE14=I Want You To Need Me
TTITLE15=Live
EXTD=
EXTT0=
EXTT1=
EXTT2=
EXTT3=
EXTT4=
EXTT5=
EXTT6=
EXTT7=
EXTT8=
EXTT9=
EXTT10=
EXTT11=
EXTT12=
EXTT13=
EXTT14=
EXTT15=
PLAYORDER=
